PathFileType	4	(X/Y/Z)	0_coords_data.trc
DataRate	CameraRate	NumFrames	NumMarkers	Units	OrigDataRate	OrigDataStartFrame	OrigNumFrames
30.0	30.0	5	21	m	30.0	52	72
Frame#	Time	THUMB_TIP	THUMB_IP	THUMB_MCP	THUMB_CMC	INDEX_TIP	INDEX_DIP	INDEX_PIP	INDEX_MCP	MIDDLE_TIP	MIDDLE_DIP	MIDDLE_PIP	MIDDLE_MCP	RING_TIP	RING_DIP	RING_PIP	RING_MCP	PINKY_TIP	PINKY_DIP	PINKY_PIP	PINKY_MCP	WRIST
X1	Y1	Z1	X2	Y2	Z2	X3	Y3	Z3	X4	Y4	Z4	X5	Y5	Z5	X6	Y6	Z6	X7	Y7	Z7	X8	Y8	Z8	X9	Y9	Z9	X10	Y10	Z10	X11	Y11	Z11	X12	Y12	Z12	X13	Y13	Z13	X14	Y14	Z14	X15	Y15	Z15	X16	Y16	Z16	X17	Y17	Z17	X18	Y18	Z18	X19	Y19	Z19	X20	Y20	Z20	X21	Y21	Z21
51	1.7	0.026759700775146486	-0.08911509704589844	1.0118400268554688	0.014935999870300294	-0.06542520141601563	1.0226500244140626	-0.007341800212860107	-0.05207609939575195	1.0435999755859375	-0.015284799575805664	-0.016612600326538086	1.0539300537109375	0.03685940170288086	-0.060115699768066404	0.9372059936523438	0.015869500160217286	-0.05585309982299805	0.945583984375	-0.005255879878997803	-0.05017350006103516	0.9590780029296875	-0.024166900634765624	-0.037812198638916016	0.9936799926757812	0.05248320007324219	-0.031115400314331056	0.929927001953125	0.02938559913635254	-0.025978099822998046	0.935573974609375	0.0009252240061759941	-0.020388999938964845	0.9483300170898438	-0.02301959991455078	-0.013232399940490722	0.98522900390625	0.052314399719238285	0.000335400998592376	0.9307550048828125	0.02987910079956055	0.00559680986404419	0.9341279907226563	0.0024453799724578847	0.009128100395202636	0.9462050170898437	-0.014671899795532227	0.009291879653930664	0.98475	0.044388198852539064	0.02952079963684082	0.9571519775390624	0.027417800903320313	0.03714670181274414	0.9560809936523438	0.007098269939422607	0.04031219863891602	0.9622379760742188	-0.006230589866638184	0.03207730102539062	0.9899970092773438	-0.04402000045776367	0.013084500312805177	1.0719300537109375
52	1.7333333333333334	0.026829900741577147	-0.08936409759521484	1.01422998046875	0.014846699714660645	-0.06563670349121094	1.0248199462890626	-0.007836249828338623	-0.052037200927734374	1.04527001953125	-0.015588800430297851	-0.0164596004486084	1.0548599853515626	0.030233800888061522	-0.06314089965820313	0.9315750122070312	0.011166799545288085	-0.05765370178222656	0.943458984375	-0.007519869804382324	-0.05115029907226563	0.9596010131835937	-0.024106199264526368	-0.03821030044555664	0.9949110107421875	0.04710419845581055	-0.03109149932861328	0.9210570068359375	0.025155099868774414	-0.02619499969482422	0.9317310180664062	-0.000858922004699707	-0.02071929931640625	0.9486279907226562	-0.022880699157714842	-0.013748100280761719	0.9862760009765625	0.04839459991455078	0.0014373099803924561	0.9231380004882812	0.026730499267578124	0.006026470184326172	0.9313920288085937	0.0008518170118331901	0.008993619918823243	0.94685498046875	-0.014375100135803223	0.008855950355529786	0.9853560180664063	0.04358409881591797	0.03278499984741211	0.9518270263671875	0.02570840072631836	0.0385619010925293	0.954281005859375	0.005999279975891113	0.040203800201416014	0.962614990234375	-0.006301439762115477	0.03165270042419434	0.990468017578125	-0.04452299880981445	0.013572400093078613	1.072949951171875
53	1.7666666666666666	0.028221700668334963	-0.08878060150146484	1.0161099853515625	0.01533590030670166	-0.0652239990234375	1.0263299560546875	-0.007447090148925781	-0.05189929962158203	1.0464599609375	-0.015634200096130372	-0.016465200424194335	1.055780029296875	0.025675399780273438	-0.06434200286865234	0.92777001953125	0.00837740993499756	-0.05841540145874023	0.942385986328125	-0.008511039733886719	-0.05149900054931641	0.9602999877929688	-0.02370170021057129	-0.0386156005859375	0.9958889770507813	0.042838401794433593	-0.030107900619506835	0.9155	0.022175899505615236	-0.025553699493408202	0.9295089721679688	-0.002149060010910034	-0.02068199920654297	0.949135986328125	-0.022760000228881836	-0.014235699653625488	0.986989013671875	0.04474359893798828	0.0028914198875427243	0.9178629760742187	0.023857400894165038	0.006674160003662109	0.9297449951171874	-0.00043560999631881705	0.008899189949035645	0.9479609985351563	-0.014715200424194335	0.008470990180969239	0.98610498046875	0.04159669876098633	0.03566019821166992	0.9478709716796875	0.023524099349975586	0.03983599853515625	0.9529929809570312	0.004591539859771728	0.040182701110839845	0.9631090087890625	-0.007165150165557861	0.03135639953613281	0.9912960205078125	-0.04494200134277344	0.01329699993133545	1.073739990234375
54	1.8	0.028854400634765624	-0.08858319854736328	1.0180900268554687	0.015567000389099122	-0.06507669830322266	1.02822998046875	-0.007557199954986572	-0.051901100158691406	1.0478599853515624	-0.016120500564575195	-0.01644849967956543	1.0567900390625	0.020794099807739257	-0.06585990142822265	0.925030029296875	0.005280940055847168	-0.05947909927368164	0.9417369995117187	-0.009516519546508789	-0.052164600372314456	0.9611890258789062	-0.023626800537109374	-0.039113300323486325	0.9969819946289062	0.038116401672363284	-0.02997960090637207	0.9109249877929687	0.019169599533081054	-0.025770700454711915	0.92789501953125	-0.0031985900402069093	-0.021098899841308593	0.9497999877929687	-0.022637500762939453	-0.014803600311279298	0.9880150146484376	0.041607898712158205	0.0033478798866271972	0.9139940185546875	0.021954299926757813	0.006462399959564209	0.9287490234375	-0.000981859982013702	0.00829605007171631	0.948572998046875	-0.014904399871826172	0.007885700225830078	0.98689697265625	0.040175201416015625	0.03732640075683594	0.944885986328125	0.022378799438476562	0.040132999420166016	0.9523060302734375	0.004063270092010498	0.03962910079956055	0.9638189697265624	-0.007578010082244873	0.030747400283813477	0.992010009765625	-0.045686100006103514	0.013319899559020996	1.074550048828125
55	1.8333333333333333	0.028735700607299804	-0.08856120300292969	1.0191400146484375	0.015230999946594239	-0.06522810363769531	1.029219970703125	-0.007876800060272218	-0.05206990051269531	1.04881005859375	-0.016753799438476564	-0.016578500747680663	1.057550048828125	0.018634700775146486	-0.06689910125732422	0.9242880249023437	0.004112269878387451	-0.06028580093383789	0.9420139770507813	-0.009826700210571289	-0.052876399993896483	0.9621589965820313	-0.023769199371337892	-0.039523998260498044	0.9979760131835937	0.0351260986328125	-0.030281000137329102	0.9087160034179688	0.01736479949951172	-0.026370500564575194	0.9275339965820313	-0.0036867799758911134	-0.021810800552368163	0.9506079711914063	-0.02299090003967285	-0.015375800132751465	0.9886890258789063	0.03923199844360352	0.003188620090484619	0.9118729858398438	0.020565099716186523	0.005906360149383545	0.9282310180664063	-0.001162960052490234	0.007547070026397705	0.949406982421875	-0.015253000259399414	0.007313630104064941	0.9875139770507813	0.038550399780273435	0.03847959899902344	0.9428610229492187	0.021069400787353514	0.04029859924316406	0.9518480224609375	0.003445349931716919	0.039081901550292966	0.9642969970703125	-0.008021459579467774	0.030115400314331055	0.9924149780273438	-0.046330799102783204	0.013197099685668946	1.0751099853515624
